<svg xmlns="http://www.w3.org/2000/svg" viewBox="0 0 56.47 58.85"><defs><style>.cls-1{fill:none;stroke:#eac377;stroke-miterlimit:10;stroke-width:2px;}</style></defs><g id="Слой_2" data-name="Слой 2"><g id="Слой_1-2" data-name="Слой 1"><rect class="cls-1" x="1" y="15.72" width="27.23" height="14.64"/><rect class="cls-1" x="28.23" y="15.72" width="27.23" height="14.64"/><rect class="cls-1" x="4.32" y="30.36" width="23.91" height="27.49"/><rect class="cls-1" x="28.23" y="30.36" width="23.91" height="27.49"/><path class="cls-1" d="M16.41,15.73a8,8,0,0,1-1.79-5.1c0-3.37,2.7-7.55,6.81-7.53a7.18,7.18,0,0,1,6.8,7.53v5.09"/><path class="cls-1" d="M28.23,15.72l-.09-5.87C28,4.91,31.82,1,36,1c4.7,0,7.68,4.92,7.81,8.85a9.44,9.44,0,0,1-2,5.88"/></g></g></svg>