<svg xmlns="http://www.w3.org/2000/svg" viewBox="0 0 48.01 59.84"><defs><style>.cls-1{fill:none;stroke:#eac377;stroke-miterlimit:10;stroke-width:2px;}</style></defs><g id="Слой_2" data-name="Слой 2"><g id="Слой_1-2" data-name="Слой 1"><path class="cls-1" d="M24.14,1.38a7.33,7.33,0,0,0,4.21,1.85,7.36,7.36,0,0,0,3.77-.7,6.51,6.51,0,0,0,2,3.12,6.63,6.63,0,0,0,4.53,1.54,5.68,5.68,0,0,0,1,4.08,5.68,5.68,0,0,0,3.26,2.11,7.15,7.15,0,0,0,1.47,8,7.31,7.31,0,0,0-2.3,4.21,7.22,7.22,0,0,0,.64,4.28,6.45,6.45,0,0,0-2.94,2.17,6.62,6.62,0,0,0-1.28,4.28,8.27,8.27,0,0,0-5.23,1.91,7.77,7.77,0,0,0-1.85,2.36,6,6,0,0,0-4.09-.7A5.87,5.87,0,0,0,23.89,42,7.17,7.17,0,0,0,19,39.93a6.59,6.59,0,0,0-2.93.7,6.91,6.91,0,0,0-3-3.76A6.79,6.79,0,0,0,9.52,36a7.67,7.67,0,0,0-1.78-4.53,7.67,7.67,0,0,0-2.68-2,7.34,7.34,0,0,0,.51-4.78,7.31,7.31,0,0,0-1.79-3.26A6.48,6.48,0,0,0,6,17.14a6.34,6.34,0,0,0-.7-3.32,6.48,6.48,0,0,0,3.19-2.61,6.64,6.64,0,0,0,1-4.15,5.53,5.53,0,0,0,4.4-.7,5.48,5.48,0,0,0,2.3-3.64,7.13,7.13,0,0,0,4.47.57A7,7,0,0,0,24.14,1.38Z"/><circle class="cls-1" cx="24.08" cy="21.71" r="11.74"/><path class="cls-1" d="M12.94,57.35l-3-7.84-8,2.29L9.88,36A6.67,6.67,0,0,1,16,40.63a6.49,6.49,0,0,1,5.38-.22Q17.17,48.89,12.94,57.35Z"/><path class="cls-1" d="M35.1,57.35c1-2.62,2-5.23,3-7.84l8.06,2.29L38.5,36.36a7.89,7.89,0,0,0-4,1,8,8,0,0,0-3.11,3.24A6.05,6.05,0,0,0,29,39.85a5.81,5.81,0,0,0-2.5.31Q30.82,48.76,35.1,57.35Z"/></g></g></svg>