<svg xmlns="http://www.w3.org/2000/svg" viewBox="0 0 49.93 59.2"><defs><style>.cls-1{fill:none;stroke:#eac377;stroke-miterlimit:10;stroke-width:2px;}</style></defs><g id="Слой_2" data-name="Слой 2"><g id="Слой_1-2" data-name="Слой 1"><path class="cls-1" d="M48.29,11.37A28.52,28.52,0,0,1,34.82,9a28.41,28.41,0,0,1-9.89-7.41A29.52,29.52,0,0,1,15.42,9,29.57,29.57,0,0,1,1.57,11.88a44.07,44.07,0,0,0,2,22C9.18,49.18,21.66,56.28,25.06,58.07A45.28,45.28,0,0,0,45.8,35.31,44.46,44.46,0,0,0,48.29,11.37Z"/><path class="cls-1" d="M41.2,17a19.52,19.52,0,0,1-9.43-1.75,19.77,19.77,0,0,1-6.93-5.33,20.57,20.57,0,0,1-6.66,5.33,20.15,20.15,0,0,1-9.71,2.11A32.64,32.64,0,0,0,9.9,33.17a32.57,32.57,0,0,0,15,17.39A32.18,32.18,0,0,0,39.46,34.18,32.77,32.77,0,0,0,41.2,17Z"/></g></g></svg>